<?xml version="1.0" encoding="UTF-8"?>
<svg id="Layer_2" data-name="Layer 2" xmlns="http://www.w3.org/2000/svg" viewBox="0 0 583.82 65.8">
  <defs>
    <style>
      .cls-1, .cls-2, .cls-3, .cls-4 {
        stroke-miterlimit: 10;
      }

      .cls-1, .cls-2, .cls-4 {
        fill: none;
      }

      .cls-1, .cls-3, .cls-4 {
        stroke: #231f20;
      }

      .cls-5 {
        fill: #f15822;
      }

      .cls-2 {
        stroke: #f15822;
      }

      .cls-3, .cls-6 {
        fill: #231f20;
      }

      .cls-4 {
        stroke-width: .5px;
      }
    </style>
  </defs>
  <g id="Layer_1-2" data-name="Layer 1">
    <g>
      <g>
        <path class="cls-3" d="m277.62,6.68v10.27c0,1.04-.19,1.98-.56,2.82-.37.84-.86,1.52-1.46,2.04s-1.3.92-2.08,1.2c-.78.28-1.57.43-2.38.43s-1.6-.14-2.38-.41c-.78-.28-1.47-.67-2.08-1.19s-1.09-1.2-1.46-2.05c-.37-.85-.56-1.8-.56-2.83V6.68h1.28v10.27c0,.85.15,1.62.45,2.31.3.69.69,1.25,1.17,1.68.48.43,1.04.76,1.67.99.63.24,1.26.35,1.91.35s1.28-.12,1.91-.35c.63-.24,1.18-.57,1.67-.99s.87-.98,1.17-1.68c.3-.69.45-1.46.45-2.31V6.68h1.28Z"/>
        <path class="cls-3" d="m302.51,6.68l11.37,13.68V6.68h1.28v16.53h-.51l-11.39-13.65v13.65h-1.3V6.68h.56Z"/>
        <path class="cls-3" d="m339.68,23.22V6.68h1.28v16.53h-1.28Z"/>
        <path class="cls-3" d="m379.13,6.68l-6.95,16.58h-1.4l-6.95-16.58h1.4l6.25,15.12,6.25-15.12h1.4Z"/>
        <path class="cls-3" d="m403.26,14.31h9.9v1.16h-9.9v6.52h10.67v1.23h-11.95V6.68h11.66v1.2h-10.38v6.42Z"/>
        <path class="cls-3" d="m450.87,23.22h-1.71l-5.84-6.26h-4.61v6.26h-1.3V6.68h7.44c1.74,0,3.09.51,4.07,1.52s1.47,2.22,1.48,3.63c.02,1.43-.46,2.63-1.41,3.6-.96.97-2.31,1.45-4.07,1.45l5.96,6.33Zm-12.17-7.46h5.99c1.42,0,2.48-.35,3.19-1.06.71-.71,1.07-1.67,1.09-2.88.02-1.06-.34-1.98-1.06-2.76-.72-.79-1.75-1.18-3.07-1.18h-6.13v7.89Z"/>
        <path class="cls-3" d="m484.76,9.87c-.56-.88-1.27-1.47-2.11-1.77-.84-.3-1.85-.46-3-.47-.77,0-1.52.09-2.23.26-.72.17-1.38.53-1.98,1.06-.6.54-.9,1.21-.9,2.03,0,.41.1.77.29,1.09s.42.57.69.77.65.38,1.16.56.97.3,1.38.39c.41.09.96.19,1.65.32,2.11.39,3.55.78,4.32,1.16,1.54.74,2.32,1.94,2.32,3.59,0,.88-.21,1.64-.64,2.28s-.99,1.12-1.68,1.44-1.4.55-2.11.7c-.72.14-1.47.21-2.26.21-1.43,0-2.79-.3-4.08-.91-1.29-.61-2.24-1.5-2.85-2.68l1.16-.57c.48.94,1.28,1.68,2.4,2.21,1.12.53,2.24.79,3.37.79.6,0,1.17-.05,1.74-.14.56-.09,1.13-.26,1.71-.5.58-.24,1.05-.6,1.4-1.09.35-.49.53-1.08.53-1.77,0-.39-.06-.75-.19-1.07-.13-.32-.34-.6-.64-.84-.3-.24-.59-.43-.87-.59-.28-.16-.68-.31-1.2-.45-.51-.14-.93-.25-1.25-.32-.32-.07-.79-.16-1.4-.27-.68-.13-1.2-.23-1.56-.31-.36-.08-.83-.2-1.41-.37-.58-.17-1.03-.34-1.34-.53-.31-.19-.64-.43-.98-.71-.34-.28-.58-.62-.74-1.02-.15-.39-.23-.83-.23-1.32-.02-.83.17-1.56.57-2.18.39-.62.92-1.1,1.59-1.43s1.36-.57,2.06-.73c.71-.16,1.44-.24,2.2-.24,1.4,0,2.59.19,3.56.57s1.85,1.13,2.62,2.24l-1.06.61Z"/>
        <path class="cls-3" d="m509.65,23.22V6.68h1.28v16.53h-1.28Z"/>
        <path class="cls-3" d="m539.53,7.84h-6.11v-1.13h13.52v1.13h-6.11v15.38h-1.3V7.84Z"/>
        <path class="cls-3" d="m574.34,16.6l-6.59-9.9v-.02h1.52l5.72,8.69,5.75-8.69h1.52v.02l-6.61,9.9v6.61h-1.3v-6.61Z"/>
      </g>
      <g>
        <path class="cls-6" d="m282.2,46.9l-7.46,10.82h-.5l-7.51-10.82v16.42h-1.5v-18.48h1.78l7.46,10.77,7.37-10.77h1.84v18.48h-1.47v-16.42Z"/>
        <path class="cls-6" d="m304.64,63.31l-2.14-4.54h-11.63l-2.11,4.54h-1.61l8.73-18.48h1.64l8.73,18.48h-1.61Zm-2.73-5.86l-5.23-11.25-5.23,11.25h10.46Z"/>
        <path class="cls-6" d="m310.37,44.84l13.1,15.28v-15.28h1.47v18.48h-.58l-13.13-15.26v15.26h-1.5v-18.48h.64Z"/>
        <path class="cls-6" d="m345.91,63.31l-2.14-4.54h-11.63l-2.11,4.54h-1.61l8.73-18.48h1.64l8.73,18.48h-1.61Zm-2.73-5.86l-5.23-11.25-5.23,11.25h10.46Z"/>
        <path class="cls-6" d="m365.27,48.24c-.83-.77-1.8-1.36-2.91-1.77s-2.22-.61-3.35-.61c-2.71,0-4.82.8-6.34,2.4-1.52,1.6-2.27,3.55-2.25,5.83,0,2.31.75,4.23,2.25,5.78,1.5,1.55,3.62,2.32,6.34,2.32,2.32,0,4.29-.71,5.92-2.14v-5.17h-6.79v-1.24h8.21v6.92c-2.1,1.99-4.54,2.98-7.34,2.98-2.13,0-3.97-.44-5.52-1.32-1.55-.88-2.69-2.02-3.42-3.42-.73-1.4-1.1-2.96-1.1-4.69-.02-2.87.9-5.18,2.77-6.93,1.86-1.75,4.29-2.63,7.27-2.63,2.78,0,5.16.92,7.12,2.77l-.86.9Z"/>
        <path class="cls-6" d="m372.33,53.36h11.4v1.29h-11.4v7.29h12.29v1.37h-13.77v-18.48h13.44v1.35h-11.96v7.18Z"/>
        <path class="cls-6" d="m405.87,46.9l-7.45,10.82h-.5l-7.51-10.82v16.42h-1.5v-18.48h1.78l7.46,10.77,7.37-10.77h1.84v18.48h-1.47v-16.42Z"/>
        <path class="cls-6" d="m414.32,53.36h11.4v1.29h-11.4v7.29h12.29v1.37h-13.77v-18.48h13.44v1.35h-11.96v7.18Z"/>
        <path class="cls-6" d="m431.53,44.84l13.1,15.28v-15.28h1.47v18.48h-.58l-13.13-15.26v15.26h-1.5v-18.48h.64Z"/>
        <path class="cls-6" d="m456.31,46.13h-7.04v-1.27h15.58v1.27h-7.04v17.19h-1.5v-17.19Z"/>
        <path class="cls-6" d="m486.9,48.4c-.65-.99-1.46-1.65-2.43-1.98s-2.13-.51-3.46-.53c-.89,0-1.75.1-2.57.29-.83.19-1.59.59-2.28,1.19-.7.6-1.04,1.35-1.04,2.27,0,.46.11.86.33,1.21.22.35.49.64.79.86.31.22.75.43,1.34.62.58.19,1.11.34,1.58.44s1.11.22,1.91.36c2.43.44,4.09.87,4.98,1.29,1.78.83,2.67,2.16,2.67,4.01,0,.99-.25,1.83-.74,2.55-.49.71-1.14,1.25-1.93,1.61s-1.61.62-2.43.78-1.69.24-2.6.24c-1.65,0-3.22-.34-4.7-1.02-1.48-.68-2.58-1.68-3.28-3l1.34-.63c.56,1.06,1.48,1.88,2.77,2.47,1.29.59,2.58.88,3.88.88.69,0,1.35-.05,2-.16.65-.11,1.31-.29,1.98-.55.67-.26,1.21-.67,1.61-1.21.41-.55.61-1.21.61-1.98,0-.44-.07-.84-.22-1.2-.15-.36-.39-.67-.74-.94-.34-.26-.68-.48-1-.66-.32-.18-.78-.34-1.38-.5-.59-.16-1.08-.28-1.45-.36s-.91-.18-1.61-.3c-.78-.14-1.38-.26-1.79-.34-.42-.09-.96-.22-1.63-.41-.67-.18-1.18-.38-1.54-.59-.36-.21-.74-.48-1.13-.79s-.67-.7-.85-1.14-.26-.93-.26-1.48c-.02-.93.2-1.75.65-2.44s1.07-1.23,1.84-1.6,1.56-.64,2.38-.82c.82-.18,1.66-.26,2.53-.26,1.61,0,2.98.21,4.1.63s2.13,1.26,3.02,2.51l-1.22.69Z"/>
        <path class="cls-6" d="m497.86,55.92l-7.59-11.06v-.03h1.75l6.59,9.71,6.62-9.71h1.75v.03l-7.62,11.06v7.39h-1.5v-7.39Z"/>
        <path class="cls-6" d="m522.25,48.4c-.65-.99-1.46-1.65-2.43-1.98s-2.13-.51-3.46-.53c-.89,0-1.75.1-2.57.29-.83.19-1.59.59-2.28,1.19-.7.6-1.04,1.35-1.04,2.27,0,.46.11.86.33,1.21.22.35.49.64.79.86.31.22.75.43,1.34.62.58.19,1.11.34,1.58.44s1.11.22,1.91.36c2.43.44,4.09.87,4.98,1.29,1.78.83,2.67,2.16,2.67,4.01,0,.99-.25,1.83-.74,2.55-.49.71-1.14,1.25-1.93,1.61s-1.61.62-2.43.78-1.69.24-2.6.24c-1.65,0-3.22-.34-4.7-1.02-1.48-.68-2.58-1.68-3.28-3l1.34-.63c.56,1.06,1.48,1.88,2.77,2.47,1.29.59,2.58.88,3.88.88.69,0,1.35-.05,2-.16.65-.11,1.31-.29,1.98-.55.67-.26,1.21-.67,1.61-1.21.41-.55.61-1.21.61-1.98,0-.44-.07-.84-.22-1.2-.15-.36-.39-.67-.74-.94-.34-.26-.68-.48-1-.66-.32-.18-.78-.34-1.38-.5-.59-.16-1.08-.28-1.45-.36s-.91-.18-1.61-.3c-.78-.14-1.38-.26-1.79-.34-.42-.09-.96-.22-1.63-.41-.67-.18-1.18-.38-1.54-.59-.36-.21-.74-.48-1.13-.79s-.67-.7-.85-1.14-.26-.93-.26-1.48c-.02-.93.2-1.75.65-2.44s1.07-1.23,1.84-1.6,1.56-.64,2.38-.82c.82-.18,1.66-.26,2.53-.26,1.61,0,2.98.21,4.1.63s2.13,1.26,3.02,2.51l-1.22.69Z"/>
        <path class="cls-6" d="m532.87,46.13h-7.04v-1.27h15.58v1.27h-7.04v17.19h-1.5v-17.19Z"/>
        <path class="cls-6" d="m546.05,53.36h11.4v1.29h-11.4v7.29h12.29v1.37h-13.77v-18.48h13.44v1.35h-11.96v7.18Z"/>
        <path class="cls-6" d="m579.59,46.9l-7.45,10.82h-.5l-7.51-10.82v16.42h-1.5v-18.48h1.78l7.46,10.77,7.37-10.77h1.84v18.48h-1.47v-16.42Z"/>
      </g>
      <line class="cls-2" x1="264.99" y1="33.26" x2="583.82" y2="33.26"/>
      <g>
        <rect class="cls-6" x="14.44" y="9.39" width="41.91" height="41.91" transform="translate(31.83 -16.14) rotate(45)"/>
        <line class="cls-1" x1="5.76" y1="30.34" x2="9.53" y2="58.93"/>
        <line class="cls-1" x1="5.76" y1="30.34" x2=".49" y2="58.93"/>
        <line class="cls-1" x1="5.76" y1="30.34" x2="5.42" y2="60.99"/>
        <g>
          <path class="cls-5" d="m92.67,36.39V5.48h14.71v30.91c0,15.55-11.99,29.41-28.01,29.41s-28.01-13.86-28.01-29.41V5.48h14.71v30.91c0,7.4,5.43,14.61,13.3,14.61s13.3-7.21,13.3-14.61Z"/>
          <path d="m194.02,27.77v36.63h-14.89V27.77c0-5.15-4.22-9.37-9.37-9.37s-9.27,4.22-9.27,9.37v36.63h-14.89V27.77c0-5.15-4.22-9.37-9.37-9.37s-9.27,4.22-9.27,9.37v36.63h-14.89V27.77c0-13.4,10.87-24.26,24.17-24.26,6.56,0,12.46,2.62,16.77,6.84,4.4-4.22,10.3-6.84,16.77-6.84,13.4,0,24.26,10.87,24.26,24.26Z"/>
          <path d="m216.49,27.21h20.8c9.84,0,17.8,8.06,17.8,17.89v1.31c0,9.84-7.96,17.89-17.8,17.89h-34.1v-14.89h34.1c1.59,0,3-1.31,3-3,0-1.97-.28-4.31-3-4.31h-20.8c-9.74,0-17.8-8.06-17.8-17.89v-1.31c0-9.84,8.06-17.89,17.8-17.89h34.19v14.89h-34.19c-1.59,0-2.9,1.31-2.9,3,0,1.97.19,4.31,2.9,4.31Z"/>
        </g>
        <line class="cls-4" x1="92.64" y1="8.79" x2="107.37" y2="8.79"/>
        <line class="cls-4" x1="92.64" y1="11.94" x2="107.37" y2="11.94"/>
        <line class="cls-4" x1="92.64" y1="15.09" x2="107.37" y2="15.09"/>
        <line class="cls-4" x1="92.64" y1="18.25" x2="107.37" y2="18.25"/>
        <line class="cls-4" x1="92.64" y1="21.4" x2="107.37" y2="21.4"/>
        <line class="cls-4" x1="92.64" y1="24.55" x2="107.37" y2="24.55"/>
        <line class="cls-4" x1="92.64" y1="27.7" x2="107.37" y2="27.7"/>
        <line class="cls-4" x1="92.64" y1="30.85" x2="107.37" y2="30.85"/>
        <line class="cls-4" x1="92.64" y1="34" x2="107.37" y2="34"/>
        <line class="cls-4" x1="92.64" y1="37.15" x2="107.37" y2="37.15"/>
        <rect class="cls-1" x="14.44" y="9.39" width="41.91" height="41.91" transform="translate(31.83 -16.14) rotate(45)"/>
      </g>
    </g>
  </g>
</svg>